<svg version="1.1" id="Layer_1" xmlns="http://www.w3.org/2000/svg" xmlns:xlink="http://www.w3.org/1999/xlink" x="0px" y="0px"
	 width="1417.32px" height="1224.141px" viewBox="0 0 1417.32 1224.141" enable-background="new 0 0 1417.32 1224.141"
	 xml:space="preserve">
<g>
	<path fill="none" stroke="#000000" stroke-width="2" stroke-linecap="round" stroke-linejoin="round" d="M195.191,238.112v119.057
		 M195.191,297.641h59.528 M254.72,238.112v119.057"/>
	<path fill="none" stroke="#000000" stroke-width="2" stroke-linecap="round" stroke-linejoin="round" d="M284.484,238.112v119.057
		 M284.484,238.112h59.528 M284.484,297.641h44.646 M284.484,357.169h59.528"/>
	<path fill="none" stroke="#000000" stroke-width="2" stroke-linecap="round" stroke-linejoin="round" d="M373.776,238.112v119.057
		 M373.776,357.169h59.527"/>
	<path fill="none" stroke="#000000" stroke-width="2" stroke-linecap="round" stroke-linejoin="round" d="M463.068,238.112v119.057
		 M463.068,357.169h59.528"/>
	<path fill="none" stroke="#000000" stroke-width="2" stroke-linecap="round" stroke-linejoin="round" d="M559.801,297.641
		c0,24.657,19.988,44.646,44.646,44.646s44.646-19.989,44.646-44.646s-19.988-44.646-44.646-44.646S559.801,272.983,559.801,297.641
		"/>
	<polyline fill="none" stroke="#000000" stroke-width="2" stroke-linecap="round" stroke-linejoin="round" points="686.297,238.112 
		708.621,357.169 730.944,267.876 753.268,357.169 775.591,238.112 	"/>
	<path fill="none" stroke="#000000" stroke-width="2" stroke-linecap="round" stroke-linejoin="round" d="M812.796,297.641
		c0,24.657,19.988,44.646,44.646,44.646s44.646-19.989,44.646-44.646s-19.988-44.646-44.646-44.646S812.796,272.983,812.796,297.641
		"/>
	<path fill="none" stroke="#000000" stroke-width="2" stroke-linecap="round" stroke-linejoin="round" d="M939.292,238.112v119.057
		 M939.292,238.112h59.528c22.323,0,37.205,14.882,37.205,37.205s-14.882,37.205-37.205,37.205h-59.528h59.528l29.765,44.646"/>
	<path fill="none" stroke="#000000" stroke-width="2" stroke-linecap="round" stroke-linejoin="round" d="M1058.349,238.112v119.057
		 M1058.349,357.169h59.527"/>
	<path fill="none" stroke="#000000" stroke-width="2" stroke-linecap="round" stroke-linejoin="round" d="M1147.641,238.112v119.057
		 M1147.641,238.112h59.528c29.764,14.882,29.764,59.528,0,119.057h-59.528"/>
</g>
<g>
	<path fill="none" stroke="#000000" stroke-width="1.4964" stroke-linecap="round" stroke-linejoin="round" d="M197.878,443.268
		v50.902 M188.334,455.993l9.544-12.726v50.902"/>
	<path fill="none" stroke="#000000" stroke-width="1.4964" stroke-linecap="round" stroke-linejoin="round" d="M232.873,443.268
		c9.544,0,22.27,3.182,22.27,15.906c0,12.727-15.907,25.452-25.451,31.814h25.451v3.182"/>
	<path fill="none" stroke="#000000" stroke-width="1.4964" stroke-linecap="round" stroke-linejoin="round" d="M290.138,443.268
		h19.088c9.544,3.182,9.544,15.906,0,19.088h-15.907 M309.226,462.355c12.726,3.182,12.726,19.089,0,31.814h-19.088"/>
	<path fill="none" stroke="#000000" stroke-width="1.4964" stroke-linecap="round" stroke-linejoin="round" d="M363.31,443.268
		L347.402,471.9h25.452 M363.31,443.268v50.902"/>
	<path fill="none" stroke="#000000" stroke-width="1.4964" stroke-linecap="round" stroke-linejoin="round" d="M407.848,443.268
		h-15.906v25.451h15.906c9.545,0,15.908,6.363,15.908,15.907s-6.363,9.544-15.908,9.544h-15.906"/>
	<path fill="none" stroke="#000000" stroke-width="1.4964" stroke-linecap="round" stroke-linejoin="round" d="M465.115,468.719
		c-9.544-25.451-25.451-19.089-25.451-3.182c0,28.633,25.451,28.633,25.451,9.545c0-12.727-12.727-12.727-25.451,0"/>
	<polyline fill="none" stroke="#000000" stroke-width="1.4964" stroke-linecap="round" stroke-linejoin="round" points="
		487.387,443.268 512.839,443.268 493.749,494.17 	"/>
	<path fill="none" stroke="#000000" stroke-width="1.4964" stroke-linecap="round" stroke-linejoin="round" d="M541.472,455.993
		c-9.544-9.544-9.544-19.088,0-25.451c9.546,0,19.09,6.363,19.09,15.907s-9.544,19.088-19.09,19.088
		c-9.544,0-19.089,6.363-19.089,15.907s9.545,12.726,19.089,12.726c9.546,0,19.09-3.182,19.09-12.726"/>
	<path fill="none" stroke="#000000" stroke-width="1.4964" stroke-linecap="round" stroke-linejoin="round" d="M592.375,468.719
		c9.544,25.451,25.451,19.088,25.451,3.182c0-28.633-25.451-28.633-25.451-9.545c0,12.727,12.726,12.727,25.451,0"/>
	<path fill="none" stroke="#000000" stroke-width="1.4964" stroke-linecap="round" stroke-linejoin="round" d="M640.096,468.719
		c0,10.542,8.546,19.088,19.088,19.088s19.089-8.546,19.089-19.088c0-10.543-8.547-19.089-19.089-19.089
		S640.096,458.176,640.096,468.719"/>
	<path fill="none" stroke="#000000" stroke-width="1.4964" stroke-linecap="round" stroke-linejoin="round" d="M213.397,545.072
		c0,10.542,8.546,19.088,19.088,19.088s19.088-8.546,19.088-19.088s-8.546-19.089-19.088-19.089S213.397,534.53,213.397,545.072
		 M242.03,554.616l9.544,9.544"/>
	<polyline fill="none" stroke="#000000" stroke-width="1.4964" stroke-linecap="round" stroke-linejoin="round" points="
		267.48,519.62 277.025,570.522 286.569,532.346 296.113,570.522 305.657,519.62 	"/>
	<path fill="none" stroke="#000000" stroke-width="1.4964" stroke-linecap="round" stroke-linejoin="round" d="M318.382,519.62
		v50.902 M318.382,519.62h25.451 M318.382,545.072h19.089 M318.382,570.522h25.451"/>
	<path fill="none" stroke="#000000" stroke-width="1.4964" stroke-linecap="round" stroke-linejoin="round" d="M356.559,519.62
		v50.902 M356.559,519.62h25.451c9.544,0,15.907,6.363,15.907,15.908c0,9.544-6.363,15.906-15.907,15.906h-25.451h25.451
		l12.726,19.088"/>
	<path fill="none" stroke="#000000" stroke-width="1.4964" stroke-linecap="round" stroke-linejoin="round" d="M407.461,519.62
		h25.451 M420.187,519.62v50.902"/>
	<path fill="none" stroke="#000000" stroke-width="1.4964" stroke-linecap="round" stroke-linejoin="round" d="M445.639,519.62
		l12.727,25.452l12.726-25.452 M458.365,545.072v25.45"/>
	<path fill="none" stroke="#000000" stroke-width="1.4964" stroke-linecap="round" stroke-linejoin="round" d="M483.816,519.62
		v38.177c0,12.726,25.453,12.726,25.453,0V519.62"/>
	<path fill="none" stroke="#000000" stroke-width="1.4964" stroke-linecap="round" stroke-linejoin="round" d="M521.996,519.62
		h12.726 M528.358,519.62v50.902 M521.996,570.522h12.726"/>
	<path fill="none" stroke="#000000" stroke-width="1.4964" stroke-linecap="round" stroke-linejoin="round" d="M544.267,545.072
		c0,10.542,8.546,19.088,19.089,19.088s19.089-8.546,19.089-19.088s-8.546-19.089-19.089-19.089S544.267,534.53,544.267,545.072"/>
	<path fill="none" stroke="#000000" stroke-width="1.4964" stroke-linecap="round" stroke-linejoin="round" d="M598.352,519.62
		v50.902 M598.352,519.62h25.45c9.545,0,15.908,6.363,15.908,15.908c0,9.544-6.363,15.906-15.908,15.906h-25.45"/>
	<path fill="none" stroke="#000000" stroke-width="1.4964" stroke-linecap="round" stroke-linejoin="round" d="M222.941,651.365
		l19.088-50.902l19.088,50.902 M232.485,625.914h19.088"/>
	<path fill="none" stroke="#000000" stroke-width="1.4964" stroke-linecap="round" stroke-linejoin="round" d="M292.932,600.463
		c-9.544-9.544-22.27-9.544-31.814,0c-9.544,9.545-3.181,19.089,12.726,25.451s22.27,15.906,12.726,25.451
		c-9.544,9.544-22.27,9.544-31.814,0"/>
	<path fill="none" stroke="#000000" stroke-width="1.4964" stroke-linecap="round" stroke-linejoin="round" d="M324.746,600.463
		v50.902 M324.746,600.463h25.451c12.726,6.363,12.726,44.539,0,50.902h-25.451"/>
	<path fill="none" stroke="#000000" stroke-width="1.4964" stroke-linecap="round" stroke-linejoin="round" d="M375.647,600.463
		v50.902 M375.647,600.463h25.452 M375.647,625.914h19.089"/>
	<path fill="none" stroke="#000000" stroke-width="1.4964" stroke-linecap="round" stroke-linejoin="round" d="M404.28,625.914
		c0-10.542,8.546-19.088,19.089-19.088l0,0c10.542,0,19.088,8.546,19.088,19.088l0,0c0,10.542-8.547,19.088-19.088,19.088l0,0
		C412.826,645.002,404.28,636.456,404.28,625.914L404.28,625.914 M423.369,625.914h19.088"/>
	<path fill="none" stroke="#000000" stroke-width="1.4964" stroke-linecap="round" stroke-linejoin="round" d="M464.728,600.463
		v50.902 M464.728,625.914h25.452 M490.18,600.463v50.902"/>
	<path fill="none" stroke="#000000" stroke-width="1.4964" stroke-linecap="round" stroke-linejoin="round" d="M502.906,600.463
		h25.452 M515.633,600.463v38.177c0,12.726-12.727,15.907-19.09,6.362"/>
	<path fill="none" stroke="#000000" stroke-width="1.4964" stroke-linecap="round" stroke-linejoin="round" d="M541.084,600.463
		v50.902 M541.084,625.914l22.271-25.451 M541.084,625.914l22.271,25.451"/>
	<path fill="none" stroke="#000000" stroke-width="1.4964" stroke-linecap="round" stroke-linejoin="round" d="M579.264,600.463
		v50.902 M579.264,651.365h25.45"/>
	<path fill="none" stroke="#000000" stroke-width="1.4964" stroke-linecap="round" stroke-linejoin="round" d="M617.439,600.463
		v50.902 M617.439,600.463l25.451,50.902 M642.891,600.463v50.902 M617.439,590.919h25.451"/>
	<polyline fill="none" stroke="#000000" stroke-width="1.4964" stroke-linecap="round" stroke-linejoin="round" points="
		273.079,682.812 298.53,682.812 273.079,733.714 298.53,733.714 	"/>
	<path fill="none" stroke="#000000" stroke-width="1.4964" stroke-linecap="round" stroke-linejoin="round" d="M317.618,682.812
		l25.451,50.901 M317.618,733.714l25.451-50.901"/>
	
		<path fill="none" stroke="#000000" stroke-width="1.4964" stroke-linecap="round" stroke-linejoin="round" stroke-dasharray="0,23.4937,117.5433,0" d="
		M365.339,708.264c0-10.542,8.546-19.089,19.088-19.089s19.088,8.547,19.088,19.089s-8.546,19.088-19.088,19.088
		S365.339,718.806,365.339,708.264"/>
	<polyline fill="none" stroke="#000000" stroke-width="1.4964" stroke-linecap="round" stroke-linejoin="round" points="
		419.423,682.812 432.148,733.714 444.875,682.812 	"/>
	<path fill="none" stroke="#000000" stroke-width="1.4964" stroke-linecap="round" stroke-linejoin="round" d="M463.964,682.812
		v50.901 M463.964,682.812h15.907c6.363,0,9.545,3.181,9.545,9.544s-3.182,9.545-9.545,9.545h-15.907 M463.964,701.901h19.089
		c9.545,0,15.908,6.362,15.908,15.906s-6.363,15.906-15.908,15.906h-19.089"/>
	<path fill="none" stroke="#000000" stroke-width="1.4964" stroke-linecap="round" stroke-linejoin="round" d="M514.868,682.812
		v50.901 M514.868,682.812l25.452,50.901 M540.32,682.812v50.901"/>
	<path fill="none" stroke="#000000" stroke-width="1.4964" stroke-linecap="round" stroke-linejoin="round" d="M559.409,682.812
		v50.901 M559.409,682.812l12.727,38.177l12.726-38.177v50.901"/>
</g>
<path fill="none" stroke="#000000" stroke-width="0.5055" stroke-linecap="round" stroke-linejoin="round" d="M724.18,555.361
	h11.941 M730.15,555.361v23.884"/>
<path fill="none" stroke="#000000" stroke-width="0.5055" stroke-linecap="round" stroke-linejoin="round" d="M739.107,561.332
	v17.913 M739.107,556.854v1.492"/>
<path fill="none" stroke="#000000" stroke-width="0.5055" stroke-linecap="round" stroke-linejoin="round" d="M748.063,561.332
	v23.884 M748.063,561.332h11.942c4.478,0,7.463,2.985,7.463,7.464s-2.985,7.464-7.463,7.464h-11.942"/>
<path fill="none" stroke="#000000" stroke-width="0.5055" stroke-linecap="round" stroke-linejoin="round" d="M770.454,570.288
	c0,4.947,4.01,8.957,8.956,8.957c4.947,0,8.957-4.01,8.957-8.957c0-4.945-4.01-8.956-8.957-8.956
	C774.464,561.332,770.454,565.343,770.454,570.288"/>
<path fill="none" stroke="#000000" stroke-width="0.5055" stroke-linecap="round" stroke-linejoin="round" d="M788.367,570.288
	c0-4.945,4.01-8.956,8.956-8.956s8.956,4.011,8.956,8.956c0,4.947-4.01,8.957-8.956,8.957S788.367,575.235,788.367,570.288
	 M797.323,570.288h8.956 M806.279,579.245v5.971c0,5.971-5.971,7.464-8.956,2.986"/>
<path fill="none" stroke="#000000" stroke-width="0.5055" stroke-linecap="round" stroke-linejoin="round" d="M816.729,561.332
	v17.913 M816.729,561.332h11.942c4.478,0,7.464,2.985,7.464,7.464s-2.986,7.464-7.464,7.464h-11.942"/>
<path fill="none" stroke="#000000" stroke-width="0.5055" stroke-linecap="round" stroke-linejoin="round" d="M843.598,579.245
	l8.957-23.884l8.956,23.884 M848.076,567.304h8.956"/>
<path fill="none" stroke="#000000" stroke-width="0.5055" stroke-linecap="round" stroke-linejoin="round" d="M867.481,555.361
	v23.884 M867.481,555.361h11.942 M867.481,567.304h8.956"/>
<path fill="none" stroke="#000000" stroke-width="0.5055" stroke-linecap="round" stroke-linejoin="round" d="M885.395,561.332
	v17.913 M885.395,556.854v1.492"/>
<path fill="none" stroke="#000000" stroke-width="0.5055" stroke-linecap="round" stroke-linejoin="round" d="M894.351,579.245
	l8.956-23.884l8.957,23.884 M898.829,567.304h8.956"/>
<path fill="none" stroke="#000000" stroke-width="0.5055" stroke-linecap="round" stroke-linejoin="round" d="M925.697,561.332
	c-2.984-2.985-10.449-2.985-13.434,0c-2.986,2.985,0,7.464,5.971,8.956c5.971,1.493,8.956,5.972,5.971,8.957s-10.449,2.985-13.435,0
	"/>
<path fill="none" stroke="#000000" stroke-width="0.5055" stroke-linecap="round" stroke-linejoin="round" d="M933.162,561.332
	v17.913 M933.162,556.854v1.492"/>
<path fill="none" stroke="#000000" stroke-width="0.5055" stroke-linecap="round" stroke-linejoin="round" d="M942.117,561.332
	v17.913 M942.117,561.332l11.942,17.913 M954.06,561.332v17.913"/>
<path fill="none" stroke="#000000" stroke-width="0.5055" stroke-linecap="round" stroke-linejoin="round" d="M958.538,570.288
	c0-4.945,4.01-8.956,8.956-8.956c4.947,0,8.957,4.011,8.957,8.956c0,4.947-4.01,8.957-8.957,8.957
	C962.548,579.245,958.538,575.235,958.538,570.288 M967.494,570.288h8.957 M976.451,579.245v5.971c0,5.971-5.971,7.464-8.957,2.986"
	/>
<path fill="none" stroke="#000000" stroke-width="0.5055" stroke-linecap="round" stroke-linejoin="round" d="M986.899,555.361
	v23.884 M986.899,579.245h5.972"/>
<path fill="none" stroke="#000000" stroke-width="0.5055" stroke-linecap="round" stroke-linejoin="round" d="M1001.827,561.332
	v17.913 M1001.827,561.332h11.942 M1001.827,570.288h8.956 M1001.827,579.245h11.942"/>
<path fill="none" stroke="#000000" stroke-width="0.5055" stroke-linecap="round" stroke-linejoin="round" d="M728.658,606.114
	c0-4.946,4.01-8.957,8.956-8.957l0,0c4.946,0,8.956,4.011,8.956,8.957l0,0c0,4.946-4.01,8.956-8.956,8.956l0,0
	C732.668,615.07,728.658,611.061,728.658,606.114L728.658,606.114 M737.614,606.114h8.956 M746.57,615.07v5.972
	c0,5.971-5.971,7.463-8.956,2.985"/>
<path fill="none" stroke="#000000" stroke-width="0.5055" stroke-linecap="round" stroke-linejoin="round" d="M757.02,597.157
	v17.913 M757.02,597.157h11.941 M757.02,606.114h8.957 M757.02,615.07h11.941"/>
<path fill="none" stroke="#000000" stroke-width="0.5055" stroke-linecap="round" stroke-linejoin="round" d="M777.918,597.157
	v17.913 M777.918,597.157l11.941,17.913 M789.859,597.157v17.913"/>
<path fill="none" stroke="#000000" stroke-width="0.5055" stroke-linecap="round" stroke-linejoin="round" d="M798.816,597.157
	v17.913 M798.816,597.157h11.941 M798.816,606.114h8.956 M798.816,615.07h11.941"/>
<path fill="none" stroke="#000000" stroke-width="0.5055" stroke-linecap="round" stroke-linejoin="round" d="M819.715,597.157
	v17.913 M819.715,597.157h11.941c4.479,0,7.463,2.986,7.463,7.464c0,4.479-2.984,7.464-7.463,7.464h-11.941"/>
<path fill="none" stroke="#000000" stroke-width="0.5055" stroke-linecap="round" stroke-linejoin="round" d="M846.583,615.07
	l8.956-23.884l8.957,23.884 M851.062,603.129h8.956"/>
<path fill="none" stroke="#000000" stroke-width="0.5055" stroke-linecap="round" stroke-linejoin="round" d="M873.453,597.157
	v17.913 M873.453,597.157h11.941c5.971,2.986,5.971,14.928,0,17.913h-11.941"/>
<path fill="none" stroke="#000000" stroke-width="0.5055" stroke-linecap="round" stroke-linejoin="round" d="M900.322,615.07
	l8.955-23.884l8.957,23.884 M904.8,603.129h8.956"/>
<path fill="none" stroke="#000000" stroke-width="0.5055" stroke-linecap="round" stroke-linejoin="round" stroke-dasharray="0,7.9369,39.71,0" d="
	M922.713,606.114c0-4.946,4.01-8.957,8.956-8.957l0,0c4.946,0,8.956,4.011,8.956,8.957l0,0c0,4.946-4.01,8.956-8.956,8.956l0,0
	C926.723,615.07,922.713,611.061,922.713,606.114L922.713,606.114"/>
<path fill="none" stroke="#000000" stroke-width="0.5055" stroke-linecap="round" stroke-linejoin="round" d="M940.625,606.114
	c0,4.946,4.01,8.956,8.957,8.956c4.945,0,8.956-4.01,8.956-8.956s-4.011-8.957-8.956-8.957
	C944.635,597.157,940.625,601.168,940.625,606.114L940.625,606.114"/>
<path fill="none" stroke="#000000" stroke-width="0.5055" stroke-linecap="round" stroke-linejoin="round" d="M963.016,597.157
	v17.913 M963.016,597.157l11.942,17.913 M974.958,597.157v17.913"/>
<path fill="none" stroke="#000000" stroke-width="0.5055" stroke-linecap="round" stroke-linejoin="round" d="M727.165,627.013
	v23.884 M727.165,650.896h5.972"/>
<path fill="none" stroke="#000000" stroke-width="0.5055" stroke-linecap="round" stroke-linejoin="round" d="M739.107,650.896
	l8.956-23.884l8.956,23.884 M743.585,638.954h8.956"/>
<path fill="none" stroke="#000000" stroke-width="0.5055" stroke-linecap="round" stroke-linejoin="round" d="M765.977,627.013
	h5.971 M768.961,627.013v23.884 M765.977,650.896h5.971"/>
<path fill="none" stroke="#000000" stroke-width="0.5055" stroke-linecap="round" stroke-linejoin="round" d="M780.903,650.896
	l8.956-23.884l8.957,23.884 M785.381,638.954h8.957"/>
<path fill="none" stroke="#000000" stroke-width="0.5055" stroke-linecap="round" stroke-linejoin="round" d="M800.309,638.954
	c0-4.946,4.01-8.956,8.957-8.956l0,0c4.945,0,8.956,4.01,8.956,8.956l0,0c0,4.946-4.011,8.956-8.956,8.956l0,0
	C804.318,647.91,800.309,643.9,800.309,638.954L800.309,638.954 M809.266,638.954h8.956"/>
<path fill="none" stroke="#000000" stroke-width="0.5055" stroke-linecap="round" stroke-linejoin="round" stroke-dasharray="0,7.9369,39.71,0" d="
	M824.192,638.954c0-4.946,4.011-8.956,8.956-8.956l0,0c4.947,0,8.957,4.01,8.957,8.956l0,0c0,4.946-4.01,8.956-8.957,8.956l0,0
	C828.203,647.91,824.192,643.9,824.192,638.954L824.192,638.954"/>
<path fill="none" stroke="#000000" stroke-width="0.5055" stroke-linecap="round" stroke-linejoin="round" d="M846.583,627.013
	v23.884 M846.583,650.896h5.972"/>
<path fill="none" stroke="#000000" stroke-width="0.5055" stroke-linecap="round" stroke-linejoin="round" d="M858.525,650.896
	l8.956-23.884l8.956,23.884 M863.004,638.954h8.955"/>
<path fill="none" stroke="#000000" stroke-width="0.5055" stroke-linecap="round" stroke-linejoin="round" d="M882.408,627.013
	v17.912c0,5.972,11.942,5.972,11.942,0v-17.912"/>
<path fill="none" stroke="#000000" stroke-width="0.5055" stroke-linecap="round" stroke-linejoin="round" d="M903.307,627.013
	v23.884 M903.307,627.013h11.941c5.972,2.985,5.972,20.897,0,23.884h-11.941"/>
<path fill="none" stroke="#000000" stroke-width="0.5055" stroke-linecap="round" stroke-linejoin="round" d="M927.19,627.013
	v23.884 M927.19,627.013h11.942 M927.19,638.954h8.956 M927.19,650.896h11.942"/>
<path fill="none" stroke="#000000" stroke-width="0.5055" stroke-linecap="round" stroke-linejoin="round" d="M727.165,662.838
	v23.884 M727.165,662.838h11.942c4.478,0,7.463,2.985,7.463,7.464c0,4.478-2.985,7.464-7.463,7.464h-11.942"/>
<path fill="none" stroke="#000000" stroke-width="0.5055" stroke-linecap="round" stroke-linejoin="round" d="M754.034,680.751
	l8.956-23.884l8.957,23.884 M758.512,668.809h8.957"/>
<path fill="none" stroke="#000000" stroke-width="0.5055" stroke-linecap="round" stroke-linejoin="round" d="M780.903,662.838
	v17.913 M780.903,662.838h11.942c4.478,0,7.463,2.985,7.463,7.464c0,4.478-2.985,7.464-7.463,7.464h-11.942"/>
<path fill="none" stroke="#000000" stroke-width="0.5055" stroke-linecap="round" stroke-linejoin="round" d="M807.772,680.751
	l8.956-23.884l8.957,23.884 M812.25,668.809h8.957"/>
<path fill="none" stroke="#000000" stroke-width="0.5055" stroke-linecap="round" stroke-linejoin="round" d="M834.642,662.838
	v17.913 M834.642,662.838h11.941 M834.642,671.794h8.956 M834.642,680.751h11.941"/>
<path fill="none" stroke="#000000" stroke-width="0.5055" stroke-linecap="round" stroke-linejoin="round" d="M852.555,656.867
	v23.884 M852.555,680.751h5.971"/>
<g>
	
		<path fill="none" stroke="#000000" stroke-width="0.4132" stroke-linecap="round" stroke-linejoin="round" stroke-dasharray="0,6.4874,32.4576,0" d="
		M869.246,669.068c0-4.043,3.277-7.32,7.321-7.32c4.043,0,7.321,3.277,7.321,7.32s-3.278,7.32-7.321,7.32
		C872.523,676.389,869.246,673.111,869.246,669.068"/>
	<path fill="none" stroke="#000000" stroke-width="0.4132" stroke-linecap="round" stroke-linejoin="round" d="M883.889,669.068
		c0,4.043,3.276,7.32,7.32,7.32c4.043,0,7.32-3.277,7.32-7.32s-3.277-7.32-7.32-7.32
		C887.165,661.748,883.889,665.025,883.889,669.068"/>
	
		<line fill="none" stroke="#000000" stroke-width="0.4132" stroke-linecap="round" stroke-linejoin="round" x1="902.189" y1="669.068" x2="909.51" y2="669.068"/>
	<path fill="none" stroke="#000000" stroke-width="0.4132" stroke-linecap="round" stroke-linejoin="round" d="M914.391,656.867
		v24.402 M914.391,681.27h4.881"/>
	<path fill="none" stroke="#000000" stroke-width="0.4132" stroke-linecap="round" stroke-linejoin="round" d="M924.151,681.27
		l7.321-24.402l7.32,24.402 M927.812,669.068h7.321"/>
	<path fill="none" stroke="#000000" stroke-width="0.4132" stroke-linecap="round" stroke-linejoin="round" d="M946.113,656.867
		v24.402 M946.113,661.748h9.76c4.881,2.439,4.881,17.081,0,19.521h-9.76"/>
	<path fill="none" stroke="#000000" stroke-width="0.4132" stroke-linecap="round" stroke-linejoin="round" d="M961.975,669.068
		c0,4.043,3.277,7.32,7.32,7.32s7.321-3.277,7.321-7.32s-3.278-7.32-7.321-7.32S961.975,665.025,961.975,669.068"/>
	<path fill="none" stroke="#000000" stroke-width="0.4132" stroke-linecap="round" stroke-linejoin="round" d="M982.717,681.27
		l7.32-24.402l7.32,24.402 M986.377,669.068h7.32"/>
	<path fill="none" stroke="#000000" stroke-width="0.4132" stroke-linecap="round" stroke-linejoin="round" d="M1004.679,661.748
		v19.521 M1004.679,661.748h9.761c3.66,0,6.1,2.439,6.1,6.101c0,3.66-2.439,6.1-6.1,6.1h-9.761"/>
	<path fill="none" stroke="#000000" stroke-width="0.4132" stroke-linecap="round" stroke-linejoin="round" d="M1026.641,681.27
		l7.32-24.402l7.32,24.402 M1030.301,669.068h7.32"/>
	<path fill="none" stroke="#000000" stroke-width="0.4132" stroke-linecap="round" stroke-linejoin="round" d="M1046.162,661.748
		h9.761 M1051.042,661.748v19.521"/>
	<path fill="none" stroke="#000000" stroke-width="0.4132" stroke-linecap="round" stroke-linejoin="round" d="M1054.703,669.068
		c0,4.043,3.277,7.32,7.32,7.32s7.32-3.277,7.32-7.32s-3.277-7.32-7.32-7.32S1054.703,665.025,1054.703,669.068"/>
	<path fill="none" stroke="#000000" stroke-width="0.4132" stroke-linecap="round" stroke-linejoin="round" d="M1073.004,661.748
		v19.521 M1073.004,661.748h9.762c3.66,0,6.1,2.439,6.1,6.101c0,3.66-2.439,6.1-6.1,6.1h-9.762"/>
	<path fill="none" stroke="#000000" stroke-width="0.4132" stroke-linecap="round" stroke-linejoin="round" d="M1092.525,661.748
		v19.521 M1092.525,658.087v1.221"/>
	<path fill="none" stroke="#000000" stroke-width="0.4132" stroke-linecap="round" stroke-linejoin="round" d="M1093.746,669.068
		c0,4.043,3.277,7.32,7.32,7.32s7.32-3.277,7.32-7.32s-3.277-7.32-7.32-7.32S1093.746,665.025,1093.746,669.068"/>
	<path fill="none" stroke="#000000" stroke-width="0.4132" stroke-linecap="round" stroke-linejoin="round" d="M875.348,705.672
		v19.521 M875.348,705.672h9.76c4.881,2.439,4.881,17.081,0,19.521h-9.76"/>
	<path fill="none" stroke="#000000" stroke-width="0.4132" stroke-linecap="round" stroke-linejoin="round" d="M894.869,705.672
		v19.521 M894.869,705.672h9.76 M894.869,715.433h7.32 M894.869,725.193h9.76"/>
	<path fill="none" stroke="#000000" stroke-width="0.4132" stroke-linecap="round" stroke-linejoin="round" d="M909.51,705.672
		v19.521 M909.51,705.672h9.762c3.66,0,6.1,2.439,6.1,6.101c0,3.66-2.439,6.1-6.1,6.1h-9.762"/>
	<path fill="none" stroke="#000000" stroke-width="0.4132" stroke-linecap="round" stroke-linejoin="round" d="M931.473,710.553
		v14.641 M931.473,710.553h9.76c3.66,0,6.101,2.439,6.101,6.1c0,3.661-2.44,6.101-6.101,6.101h-9.76"/>
	<path fill="none" stroke="#000000" stroke-width="0.4132" stroke-linecap="round" stroke-linejoin="round" d="M947.333,717.872
		c0,4.044,3.278,7.321,7.321,7.321s7.32-3.277,7.32-7.321c0-4.043-3.277-7.319-7.32-7.319S947.333,713.829,947.333,717.872"/>
	<path fill="none" stroke="#000000" stroke-width="0.4132" stroke-linecap="round" stroke-linejoin="round" d="M965.635,710.553
		v14.641 M965.635,710.553l4.881,9.761l4.881-9.761v14.641"/>
	<path fill="none" stroke="#000000" stroke-width="0.4132" stroke-linecap="round" stroke-linejoin="round" d="M982.717,710.553
		v19.521 M982.717,710.553h9.761c3.659,0,6.101,2.439,6.101,6.1c0,3.661-2.441,6.101-6.101,6.101h-9.761"/>
	<path fill="none" stroke="#000000" stroke-width="0.4132" stroke-linecap="round" stroke-linejoin="round" d="M1002.238,705.672
		h9.761 M1007.119,705.672v19.521"/>
	<path fill="none" stroke="#000000" stroke-width="0.4132" stroke-linecap="round" stroke-linejoin="round" d="M1016.879,710.553
		v14.641 M1016.879,706.892v1.22"/>
	<path fill="none" stroke="#000000" stroke-width="0.4132" stroke-linecap="round" stroke-linejoin="round" d="M1024.2,710.553
		v14.641 M1024.2,710.553l9.761,14.641 M1033.961,710.553v14.641"/>
	<path fill="none" stroke="#000000" stroke-width="0.4132" stroke-linecap="round" stroke-linejoin="round" d="M1037.621,717.872
		c0-4.043,3.277-7.319,7.32-7.319l0,0c4.043,0,7.321,3.276,7.321,7.319l0,0c0,4.044-3.278,7.321-7.321,7.321l0,0
		C1040.898,725.193,1037.621,721.916,1037.621,717.872L1037.621,717.872 M1044.941,717.872h7.321 M1052.263,725.193v4.881
		c0,4.88-4.88,6.101-7.321,2.439"/>
	<path fill="none" stroke="#000000" stroke-width="0.4132" stroke-linecap="round" stroke-linejoin="round" d="M1063.243,705.672
		v19.521 M1063.243,705.672h9.761 M1063.243,715.433h7.321 M1063.243,725.193h9.761"/>
	<path fill="none" stroke="#000000" stroke-width="0.4132" stroke-linecap="round" stroke-linejoin="round" d="M1077.885,705.672
		l9.761,19.521 M1077.885,725.193l9.761-19.521"/>
	<path fill="none" stroke="#000000" stroke-width="0.4132" stroke-linecap="round" stroke-linejoin="round" d="M1094.966,710.553
		v19.521 M1094.966,710.553h9.761c3.66,0,6.101,2.439,6.101,6.1c0,3.661-2.44,6.101-6.101,6.101h-9.761"/>
	<path fill="none" stroke="#000000" stroke-width="0.4132" stroke-linecap="round" stroke-linejoin="round" d="M1116.928,705.672
		v19.521 M1116.928,705.672h9.762 M1116.928,715.433h7.321 M1116.928,725.193h9.762"/>
	<path fill="none" stroke="#000000" stroke-width="0.4132" stroke-linecap="round" stroke-linejoin="round" d="M1134.009,710.553
		v14.641 M1134.009,710.553h9.762c3.661,0,6.101,2.439,6.101,6.1c0,3.661-2.439,6.101-6.101,6.101h-9.762"/>
	<path fill="none" stroke="#000000" stroke-width="0.4132" stroke-linecap="round" stroke-linejoin="round" d="M1155.971,710.553
		v14.641 M1155.971,706.892v1.22"/>
	<path fill="none" stroke="#000000" stroke-width="0.4132" stroke-linecap="round" stroke-linejoin="round" d="M1163.291,710.553
		v14.641 M1163.291,710.553l4.881,9.761l4.881-9.761v14.641"/>
	<path fill="none" stroke="#000000" stroke-width="0.4132" stroke-linecap="round" stroke-linejoin="round" d="M1180.373,705.672
		v19.521 M1180.373,705.672h9.762 M1180.373,715.433h7.32 M1180.373,725.193h9.762"/>
	<path fill="none" stroke="#000000" stroke-width="0.4132" stroke-linecap="round" stroke-linejoin="round" d="M1197.455,710.553
		v14.641 M1197.455,710.553l9.76,14.641 M1207.215,710.553v14.641"/>
	<path fill="none" stroke="#000000" stroke-width="0.4132" stroke-linecap="round" stroke-linejoin="round" d="M1212.096,705.672
		h9.762 M1216.977,705.672v19.521"/>
	<path fill="none" stroke="#000000" stroke-width="0.4132" stroke-linecap="round" stroke-linejoin="round" d="M1226.738,725.193
		l7.32-19.521l7.32,19.521 M1230.398,715.433h7.32"/>
	<path fill="none" stroke="#000000" stroke-width="0.4132" stroke-linecap="round" stroke-linejoin="round" d="M1246.26,705.672
		v19.521 M1246.26,725.193h4.879"/>
</g>
</svg>
